<svg version="1.0" xmlns="http://www.w3.org/2000/svg" width="15360.000000pt" height="8640.000000pt"
    viewBox="0 0 15360.000000 8640.000000">
    <g transform="translate(0.000000,8640.000000) scale(0.100000,-0.100000)" fill="#000000" stroke="none">
        <path d="M8930 60103 c0 -9 160 -638 356 -1397 195 -760 1064 -4130 1930
-7491 1578 -6120 4105 -15924 5605 -21742 439 -1706 799 -3104 799 -3107 0 -3
2212 -6 4915 -6 l4914 0 10 36 c6 20 337 1340 736 2933 2913 11613 3814 15194
3826 15202 8 5 49 9 92 9 71 0 78 -2 86 -22 5 -13 761 -3022 1681 -6688 919
-3666 1943 -7745 2274 -9065 l603 -2400 4914 -3 4915 -2 748 2902 c800 3104
2903 11264 5405 20968 847 3286 1765 6849 2040 7917 276 1069 501 1949 501
1958 0 13 -547 15 -5119 15 l-5120 0 -10 -52 c-6 -29 -88 -462 -181 -963 -94
-500 -862 -4584 -1706 -9075 -2011 -10698 -1984 -10555 -1984 -10563 0 -4 -43
-7 -95 -7 l-94 0 -10 38 c-5 20 -582 2503 -1282 5517 -699 3014 -1774 7645
-2388 10290 l-1117 4810 -4064 3 c-2235 1 -4067 -1 -4071 -5 -7 -8 -761 -3249
-3614 -15548 -647 -2788 -1179 -5078 -1181 -5087 -5 -16 -18 -18 -99 -18 l-94
0 -10 53 c-6 28 -150 795 -320 1702 -229 1215 -2977 15840 -3491 18572 -32
172 -61 317 -65 323 -4 7 -1658 10 -5121 10 -4801 0 -5114 -1 -5114 -17z" />
        <path d="M84157 60113 c-4 -3 -7 -7599 -7 -16880 l0 -16873 7683 3 c8327 3
7639 -1 8426 52 948 64 2085 230 2976 435 2220 511 4128 1379 5755 2619 691
526 1376 1170 1961 1841 1166 1340 2094 2962 2743 4798 883 2497 1264 5428
1121 8632 -273 6114 -2589 10579 -6790 13092 -955 571 -2033 1049 -3165 1403
-1304 407 -2746 680 -4228 799 -575 47 -887 62 -1537 76 -507 11 -14928 14
-14938 3z m13728 -7901 c770 -66 1317 -164 1903 -343 1476 -450 2668 -1332
3497 -2589 783 -1186 1251 -2688 1400 -4485 27 -326 34 -475 47 -962 33 -1265
-72 -2573 -292 -3648 -312 -1523 -853 -2737 -1644 -3685 -147 -176 -445 -483
-616 -633 -1025 -901 -2364 -1433 -3985 -1581 -406 -38 -478 -39 -2307 -43
l-1818 -4 0 8996 0 8996 1843 -4 c1226 -3 1885 -8 1972 -15z" />
        <path d="M67080 52744 c-41 -2 -201 -8 -355 -14 -1051 -41 -2103 -182 -3060
-410 -1017 -243 -1934 -572 -2805 -1006 -1781 -889 -3242 -2175 -4323 -3806
-1125 -1696 -1835 -3755 -2096 -6078 -88 -779 -116 -1371 -108 -2280 5 -604
10 -763 37 -1180 164 -2514 833 -4755 1967 -6582 942 -1518 2178 -2736 3723
-3671 343 -207 911 -502 1310 -679 1569 -698 3412 -1114 5385 -1218 837 -44
1994 -25 2800 46 962 85 1735 208 2586 413 787 189 1641 480 2319 789 298 136
363 168 603 293 794 416 1486 889 2142 1464 219 192 688 659 889 887 1085
1226 1868 2689 2311 4320 49 183 165 664 165 688 0 7 -1553 10 -4265 10
l-4265 0 -10 -22 c-5 -13 -29 -73 -53 -135 -116 -292 -372 -650 -673 -943
-466 -453 -1011 -776 -1669 -990 -880 -285 -1980 -327 -2850 -109 -688 173
-1256 481 -1723 934 -439 426 -752 914 -994 1550 -206 542 -347 1275 -375
1951 l-6 154 8502 0 8503 0 -5 1633 c-4 1618 -7 1756 -42 2277 -200 2926
-1175 5491 -2829 7445 -286 338 -737 805 -1046 1082 -1141 1025 -2527 1832
-4050 2360 -1110 384 -2206 619 -3490 747 -309 31 -471 43 -840 61 -277 14
-1144 27 -1310 19z m1195 -6624 c864 -102 1577 -428 2153 -984 600 -580 1013
-1372 1232 -2361 23 -104 44 -198 46 -207 5 -17 -188 -18 -3947 -18 l-3952 0
7 53 c18 140 117 526 197 770 109 332 287 718 462 1003 160 260 313 457 522
673 637 655 1463 1023 2450 1091 203 14 627 4 830 -20z" />
        <path d="M130645 52744 c-809 -30 -971 -41 -1540 -100 -1047 -109 -1944 -286
-2927 -580 -997 -297 -2004 -739 -2888 -1267 -1058 -632 -2027 -1456 -2826
-2402 -728 -862 -1355 -1897 -1819 -3000 -601 -1428 -967 -3033 -1089 -4780
-35 -492 -41 -689 -39 -1280 2 -792 21 -1270 78 -1900 247 -2718 1072 -5053
2433 -6880 937 -1257 2128 -2288 3522 -3049 1755 -958 3834 -1518 6205 -1671
605 -39 1555 -50 2135 -26 1255 53 2352 198 3420 451 2168 515 4000 1448 5470
2786 180 164 606 594 766 774 665 748 1188 1526 1659 2469 747 1494 1215 3244
1389 5191 55 608 71 992 70 1700 0 766 -19 1245 -74 1845 -252 2727 -1085
5040 -2494 6920 -472 630 -1089 1284 -1686 1786 -883 743 -1821 1319 -2945
1809 -859 374 -1913 695 -2920 889 -835 161 -1623 253 -2540 296 -293 14
-1165 26 -1360 19z m633 -7118 c319 -12 629 -78 947 -203 530 -208 1003 -570
1387 -1065 679 -872 1107 -2137 1263 -3728 45 -460 71 -1189 61 -1695 -46
-2415 -620 -4204 -1662 -5182 -513 -482 -1116 -757 -1816 -828 -264 -27 -658
-16 -928 26 -521 80 -1023 301 -1445 636 -229 182 -509 487 -696 758 -621 900
-996 2198 -1108 3830 -34 484 -45 1490 -23 1875 34 562 75 951 147 1382 274
1635 864 2838 1734 3532 513 410 1116 636 1773 665 90 4 177 6 193 4 17 -1 94
-5 173 -7z" />
    </g>
</svg>